<?xml version="1.0" standalone="no"?>
<!DOCTYPE svg PUBLIC "-//W3C//DTD SVG 20010904//EN"
 "http://www.w3.org/TR/2001/REC-SVG-20010904/DTD/svg10.dtd">
<svg version="1.0" xmlns="http://www.w3.org/2000/svg"
 width="200.000000pt" height="200.000000pt" viewBox="0 0 200.000000 200.000000"
 preserveAspectRatio="xMidYMid meet">
<metadata>
Created by potrace 1.16, written by Peter Selinger 2001-2019
</metadata>
<g transform="translate(0.000000,200.000000) scale(0.100000,-0.100000)"
fill="#000000" stroke="none">
<path d="M856 1396 c-65 -37 -75 -45 -61 -54 15 -8 17 -19 12 -71 -4 -48 -2
-61 9 -61 11 0 12 13 7 61 -6 61 -6 61 15 50 17 -9 22 -21 22 -49 0 -34 4 -40
35 -55 46 -22 63 -21 103 3 22 14 32 27 32 45 0 29 -2 30 -41 9 -17 -8 -33
-13 -36 -10 -3 2 32 23 78 46 l83 42 -85 44 c-46 24 -86 44 -89 43 -3 0 -40
-20 -84 -43z"/>
</g>
</svg>
